<svg xmlns="http://www.w3.org/2000/svg" width="953.13" height="381" viewBox="0 0 953.13 381"><defs><style>.cls-1{fill:#090940;}.cls-2{fill:#fff;}.cls-3{opacity:0.9;}.cls-4{fill:#6f61f2;}.cls-5{fill:#00e6c4;}.cls-6{fill:#027cff;}</style></defs><g id="图层_2" data-name="图层 2"><g id="图层_2-2" data-name="图层 2"><rect class="cls-1" width="953.13" height="381"/><path class="cls-2" d="M349.63,150.26v56.56c0,11.8-7.48,18.84-20,18.84s-19.87-7-19.87-18.84V150.26H294.64v56.43c0,20.5,13.08,32.74,35,32.74s35-12.24,35-32.74V150.26Z"/><path class="cls-2" d="M415.34,174.2c-9.09,0-16.31,3.9-19.82,10.69l-.94,1.83v-11.5H379.7v63.2h14.88V203.89c0-9.74,6.56-16.8,15.6-16.8,8.41,0,14.05,6.19,14.05,15.4v35.93h14.88V199.18C439.11,184.24,429.56,174.2,415.34,174.2Z"/><path class="cls-2" d="M453.66,147.71v16.45h16V147.71Zm.65,27.51v63.2h14.88v-63.2Z"/><g class="cls-3"><path class="cls-2" d="M562.7,152.29H533.9v88.15h28.8c21.15,0,45.84-11.54,45.84-44.08C608.54,176,596.54,152.29,562.7,152.29Zm-1.42,74.5H549.94v-61h11.34c19.39,0,31,11.42,31,30.55S580.67,226.79,561.28,226.79Z"/><path class="cls-2" d="M651.38,176.23c-19.45,0-33.57,13.72-33.57,32.62s14.12,32.61,33.57,32.61,33.45-13.72,33.45-32.61S670.76,176.23,651.38,176.23Zm0,52.73c-11.11,0-18.57-8.08-18.57-20.11s7.46-20.12,18.57-20.12c10.86,0,18.44,8.27,18.44,20.12S662.24,229,651.38,229Z"/><path class="cls-2" d="M741.48,218.39c-1.75,6.43-7.69,10.57-15.23,10.57-10.73,0-17.67-7.9-17.67-20.11s6.83-20.12,17.41-20.12c7.6,0,14,4.58,15.38,11h14.78c-1.63-13.83-14.1-23.45-30.55-23.45-19.16,0-32.54,13.41-32.54,32.62s13.38,32.61,32.54,32.61c16,0,28.6-9.46,30.91-23.07Z"/><path class="cls-2" d="M802,201.91l25.87-24.66H809.18l-25.61,24.09v-51.6H768.7v90.7h14.87v-21l8.32-7.94,20.45,28.92h18Z"/></g><rect class="cls-2" x="489.62" y="191.4" width="24.89" height="12.13"/><path class="cls-4" d="M223.19,206a1.16,1.16,0,0,1-2.07-.9,65.79,65.79,0,0,0-42.47-73.57,1.16,1.16,0,0,1,.25-2.25l48.6-5.37a27.05,27.05,0,0,1,24.65,42.69Z"/><path class="cls-5" d="M134.36,225.71a23.82,23.82,0,0,1-11,14.41,22.17,22.17,0,0,1-4.48,2.06,22.59,22.59,0,0,1-5.36,1.17,23.35,23.35,0,0,1-8.56-.69A24,24,0,0,1,88,213.3a23.56,23.56,0,0,1,3.68-7.76,24.28,24.28,0,0,1,7.72-6.91,24,24,0,0,1,34.92,27.08Z"/><path class="cls-6" d="M213.52,191.47a2.69,2.69,0,0,0-3.19-2.52,24.59,24.59,0,0,1-23.11-40,2.7,2.7,0,0,0-.59-4,57.16,57.16,0,0,0-85.48,33.71l-1.61,6.06a2.72,2.72,0,0,0,3.31,3.35,32.26,32.26,0,0,1,16.78,0,32.61,32.61,0,0,1,23,39.9,32.27,32.27,0,0,1-8.27,14.44,2.8,2.8,0,0,0,1.24,4.68l5.94,1.59a57.24,57.24,0,0,0,70-40.43A56.35,56.35,0,0,0,213.52,191.47Zm-55.8-.46a14,14,0,1,1,14-14A14,14,0,0,1,157.72,191Z"/></g></g></svg>