<svg xmlns="http://www.w3.org/2000/svg" width="952.99" height="381" viewBox="0 0 952.99 381"><defs><style>.cls-1{fill:#030317;}.cls-2{opacity:0.9;}.cls-3{fill:#6f61f2;}.cls-4{fill:#00e6c4;}.cls-5{fill:#0f78ff;}.cls-6{fill:none;}</style></defs><g id="图层_2" data-name="图层 2"><g id="图层_1-2" data-name="图层 1"><path class="cls-1" d="M293.65,207.19V150.26h16.13v57.06c0,12.23,7.87,18.34,19.36,18.34s19.49-6.11,19.49-18.34V150.26h16v56.93c0,21.65-14.33,33.24-35.5,33.24S293.65,228.84,293.65,207.19Z"/><path class="cls-1" d="M378.71,175.22h15.88v9.94c3.61-7,11-11,20.26-11,14.71,0,24.27,10.45,24.27,25.48v39.74H423.24V203c0-8.79-5.42-14.9-13.55-14.9-8.91,0-15.1,6.87-15.1,16.3v35H378.71Z"/><path class="cls-1" d="M469.71,147.71v17.45h-17V147.71Zm-16.39,27.51h15.87v64.2H453.32Z"/><g class="cls-2"><path class="cls-1" d="M532.91,152.29h29.3c25,0,46.34,14.77,46.34,44.57s-21.3,44.58-46.34,44.58h-29.3Zm27.88,74.5c15.62,0,30.46-7.89,30.46-29.93s-14.84-30.05-30.46-30.05H550v60Z"/><path class="cls-1" d="M616.81,209.35c0-19.11,14.2-33.12,34.08-33.12s33.94,14,33.94,33.12-14.19,33.11-33.94,33.11S616.81,228.45,616.81,209.35Zm52,0c0-11.6-7.23-19.62-17.94-19.62s-18.07,8-18.07,19.62S640.05,229,650.89,229,668.83,220.94,668.83,209.35Z"/><path class="cls-1" d="M692.07,209.35c0-18.35,12.77-33.12,33-33.12,16.39,0,29.69,9.68,31.11,24.45H740.47c-1.16-6.36-7.49-11-15-11-11,0-16.91,8.41-16.91,19.62S714.65,229,725.75,229c7.49,0,13.3-4.2,14.85-10.57h16c-2.06,14-14.71,24.07-31.49,24.07C704.84,242.46,692.07,227.69,692.07,209.35Z"/><path class="cls-1" d="M791.32,212.78l-7.74,7.39v21.27H767.7v-91.7h15.88v50.94l24.91-23.43h20.14l-26.46,25.22,28.65,39H811.59Z"/></g><rect class="cls-1" x="488.63" y="191.4" width="25.89" height="13.13"/><path class="cls-3" d="M222.13,208.59a1.16,1.16,0,0,1-2.07-.92,68.1,68.1,0,0,0,.49-21.71,67.07,67.07,0,0,0-24.06-43A63.83,63.83,0,0,0,178,132.58a1.2,1.2,0,0,1,.27-2.31L227,124.44a26.58,26.58,0,0,1,12.84,1.81c11.43,4.63,18.3,16.91,16.47,29.42A28.49,28.49,0,0,1,251.4,168Z"/><path class="cls-4" d="M133.86,226.21a23.82,23.82,0,0,1-11,14.41,22.34,22.34,0,0,1-4.47,2.06,22.78,22.78,0,0,1-5.37,1.17,23.37,23.37,0,0,1-8.56-.69,24,24,0,0,1-17-29.36A23.38,23.38,0,0,1,91.23,206,24.28,24.28,0,0,1,99,199.13a23.95,23.95,0,0,1,34.91,27.08Z"/><path class="cls-5" d="M213,192a2.69,2.69,0,0,0-3.19-2.52,24.59,24.59,0,0,1-23.1-40,2.7,2.7,0,0,0-.59-4,57.16,57.16,0,0,0-85.48,33.71L99,185.18a2.72,2.72,0,0,0,3.31,3.35,32.57,32.57,0,0,1,31.56,54.34,2.79,2.79,0,0,0,1.23,4.68l6,1.59A57.16,57.16,0,0,0,213,192Zm-55.79-1a13.5,13.5,0,1,1,13.5-13.5A13.49,13.49,0,0,1,157.23,191Z"/><rect class="cls-6" width="952.99" height="381"/></g></g></svg>